<svg height="300px" width="300px" fill="#000000" xmlns="http://www.w3.org/2000/svg" xmlns:xlink="http://www.w3.org/1999/xlink" version="1.1" x="0px" y="0px" viewBox="0 0 100 100" enable-background="new 0 0 100 100" xml:space="preserve"><g><path d="M93.548,18.306l-48.776-0.001l0.002-11.854c0-0.385-0.153-0.754-0.425-1.026C44.076,5.153,43.707,5,43.322,5H6.452   C5.65,5,5,5.65,5,6.452v30.726v56.371C5,94.35,5.65,95,6.452,95h55.816c0.801,0,1.452-0.65,1.452-1.452   c0-0.801-0.65-1.452-1.452-1.452H7.903V38.629h84.194v23.638c0,0.801,0.65,1.452,1.452,1.452c0.801,0,1.452-0.65,1.452-1.452   V37.177V19.758C95,18.957,94.35,18.306,93.548,18.306z M7.903,35.726V7.903h33.967l-0.002,11.854c0,0.385,0.153,0.754,0.425,1.026   c0.272,0.272,0.642,0.425,1.026,0.425l48.776,0.001v14.516H7.903z"/><path d="M93.548,80H82.903V69.355c0-0.801-0.65-1.452-1.452-1.452c-0.801,0-1.452,0.65-1.452,1.452V80H69.355   c-0.801,0-1.452,0.65-1.452,1.452c0,0.801,0.65,1.452,1.452,1.452H80v10.645C80,94.35,80.65,95,81.452,95   c0.801,0,1.452-0.65,1.452-1.452V82.903h10.645c0.801,0,1.452-0.65,1.452-1.452C95,80.65,94.35,80,93.548,80z"/></g></svg>